<?xml version="1.0" encoding="UTF-8" standalone="no" ?>
<!DOCTYPE svg PUBLIC "-//W3C//DTD SVG 1.1//EN" "http://www.w3.org/Graphics/SVG/1.1/DTD/svg11.dtd">
<svg xmlns="http://www.w3.org/2000/svg" xmlns:xlink="http://www.w3.org/1999/xlink" version="1.1" width="500" height="500" viewBox="0 0 500 500" xml:space="preserve">
<desc>Created with Fabric.js 5.3.0</desc>
<defs>
</defs>
<g transform="matrix(1.4959603153 0 0 1.4959603153 145.332975682 280.4814933766)" id="e5uJaGzzeBin3ofEzbD8j"  >
<path style="stroke: none; stroke-width: 1; stroke-dasharray: none; stroke-linecap: butt; stroke-dashoffset: 0; stroke-linejoin: miter; stroke-miterlimit: 4; fill: rgb(219,222,225); fill-rule: nonzero; opacity: 1;"  transform=" translate(-49.5483607256, -145.8)" d="M 29.4 190.9 C 32.199999999999996 190.9 34.4 188.70000000000002 34.4 185.9 L 34.4 133.60000000000002 L 64.6 117.40000000000002 L 64.6 160.3 C 64.6 163.10000000000002 66.8 165.3 69.6 165.3 C 72.39999999999999 165.3 74.6 163.10000000000002 74.6 160.3 L 74.6 100.70000000000002 L 24.499999999999993 127.60000000000002 L 24.499999999999993 185.90000000000003 C 24.4 188.6 26.6 190.9 29.4 190.9 z" stroke-linecap="round" />
</g>
<g transform="matrix(1.4959603153 0 0 1.4959603153 235.3174409374 226.103335915)" id="2et-Jw0600oY2nUXmUHct"  >
<path style="stroke: none; stroke-width: 1; stroke-dasharray: none; stroke-linecap: butt; stroke-dashoffset: 0; stroke-linejoin: miter; stroke-miterlimit: 4; fill: rgb(219,222,225); fill-rule: nonzero; opacity: 1;"  transform=" translate(-109.7, -109.45)" d="M 89.6 153 C 92.39999999999999 153 94.6 150.8 94.6 148 L 94.6 59.6 L 124.8 43.400000000000006 L 124.8 187.20000000000002 C 124.8 190.00000000000003 127 192.20000000000002 129.8 192.20000000000002 C 132.60000000000002 192.20000000000002 134.8 190.00000000000003 134.8 187.20000000000002 L 134.8 26.7 L 84.6 53.6 L 84.6 148 C 84.6 150.7 86.8 153 89.6 153 z" stroke-linecap="round" />
</g>
<g transform="matrix(1.4959603153 0 0 1.4959603153 325.4466987907 240.5393529578)" id="h9xlzF9OvHN8s3k6d51C8"  >
<path style="stroke: none; stroke-width: 1; stroke-dasharray: none; stroke-linecap: butt; stroke-dashoffset: 0; stroke-linejoin: miter; stroke-miterlimit: 4; fill: rgb(219,222,225); fill-rule: nonzero; opacity: 1;"  transform=" translate(-169.9484283379, -119.1)" d="M 149.8 185.7 C 152.60000000000002 185.7 154.8 183.5 154.8 180.7 L 154.8 85.4 L 185 69.2 L 185 155.5 C 185 158.3 187.2 160.5 190 160.5 C 192.8 160.5 195 158.3 195 155.5 L 195 52.5 L 144.9 79.4 L 144.9 180.7 C 144.8 183.5 147.1 185.7 149.8 185.7 z" stroke-linecap="round" />
</g>
<g transform="matrix(1.3102307854 0 0 1.3102307854 263.3137230042 341.7023673285)" id="scZMbnAj8sUml7lwqz50q"  >
<path style="stroke: none; stroke-width: 1; stroke-dasharray: none; stroke-linecap: butt; stroke-dashoffset: 0; stroke-linejoin: miter; stroke-miterlimit: 4; fill: rgb(219,222,225); fill-rule: nonzero; opacity: 1;"  transform=" translate(0, 0)" d="M 121.9523 -40.3 C 121.05229999999999 -41.8 119.4523 -42.8 117.6523 -42.8 L 83.1523 -42.8 C 81.3523 -42.8 79.75229999999999 -41.8 78.8523 -40.3 C 77.9523 -38.8 77.9523 -36.9 78.8523 -35.3 L 85.0523 -24.599999999999998 L 57.5523 -7.899999999999999 C 53.3523 -5.299999999999999 49.252300000000005 -2.799999999999999 45.0523 -0.1999999999999984 C 42.0523 1.7000000000000015 39.0523 3.5000000000000018 36.152300000000004 5.400000000000001 C 28.352300000000003 10.400000000000002 21.452300000000005 14.900000000000002 15.052300000000002 19.3 C 11.752300000000002 21.5 8.552300000000002 23.8 5.252300000000002 26 L -39.54769999999999 -17.799999999999997 L -120.34769999999999 33.6 C -122.64769999999999 35.1 -123.34769999999999 38.2 -121.84769999999999 40.5 C -120.84769999999999 42 -119.2477 42.8 -117.64769999999999 42.8 C -116.74769999999998 42.8 -115.84769999999999 42.5 -114.94769999999998 42 L -40.94769999999998 -5.100000000000001 L 4.2523000000000195 39 L 10.35230000000002 34.6 C 13.75230000000002 32.2 17.152300000000018 29.8 20.652300000000018 27.5 C 26.95230000000002 23.2 33.75230000000002 18.8 41.55230000000002 13.8 C 44.452300000000015 11.9 47.452300000000015 10.100000000000001 50.352300000000014 8.200000000000001 C 54.452300000000015 5.600000000000001 58.65230000000001 3.1000000000000014 62.75230000000001 0.5000000000000009 L 88.05230000000002 -15 L 90.05230000000002 -16.2 L 96.15230000000001 -5.6 C 97.05230000000002 -4.1 98.65230000000001 -3.0999999999999996 100.45230000000001 -3.0999999999999996 C 102.2523 -3.0999999999999996 103.85230000000001 -4.1 104.7523 -5.6 L 122.0523 -35.5 C 122.8523 -36.8 122.8523 -38.7 121.95230000000001 -40.3 z M 100.3523 -17.9 L 91.7523 -32.8 L 108.95230000000001 -32.8 z" stroke-linecap="round" />
</g>
</svg>